# xmcd CD database file
#
# Track frame offsets:
#	150
#	26516
#	44883
#	71270
#
# Disc length: 1841 seconds
#
# Revision: 0
# Processed by: cddbd v1.5.2PL0 Copyright (c) Steve Scherf et al.
# Submitted via: CDex 1.51
#
DISCID=31072f04
DTITLE=Rob McConnell and The Boss Brass - Big Band Jazz 2
DYEAR=1983
DGENRE=Jazz
TTITLE0=Fred
TTITLE1=Good Morning Irene
TTITLE2=No More Blues
TTITLE3=Porgy and Bess Suite
EXTD=YEAR: 1983
EXTT0=
EXTT1=
EXTT2=
EXTT3=
PLAYORDER=
